# xmcd CD database file
#
# Track frame offsets:
#	150
#	45515
#	63780
#	95603
#	129618
#	148608
#
# Disc length: 2383 seconds
#
# Revision: 0
# Processed by: cddbd v1.5PL3 Copyright (c) Steve Scherf et al.
# Submitted via: CDex 1.50
#
DISCID=4e094d06
DTITLE=Lem Winchester, Benny Golson - Winchester Special
DYEAR=1959
DGENRE=Jazz
TTITLE0=Down Fuzz
TTITLE1=If I Were A Bell
TTITLE2=Will You Still Be Mine?
TTITLE3=Mysticism
TTITLE4=How Are Things in Glocca Morra?
TTITLE5=The Dude
EXTD=YEAR: 1959
EXTT0=
EXTT1=
EXTT2=
EXTT3=
EXTT4=
EXTT5=
PLAYORDER=
